<?xml version="1.0" encoding="utf-8"?>
<!-- Generator: Adobe Illustrator 25.4.1, SVG Export Plug-In . SVG Version: 6.00 Build 0)  -->
<svg version="1.1" id="레이어_1" xmlns="http://www.w3.org/2000/svg" xmlns:xlink="http://www.w3.org/1999/xlink" x="0px"
	 y="0px" viewBox="0 0 448 512" style="enable-background:new 0 0 448 512;" xml:space="preserve">
<style type="text/css">
	.st0{fill:#330000;}
	.st1{fill:#FF9A00;}
</style>
<rect y="32" class="st0" width="448" height="448"/>
<g>
	<path class="st1" d="M224.6,322.2h-77.5l-15.8,49c-0.4,1.9-2.1,3.1-4,2.9H88.1c-2.3,0-2.9-1.3-2.3-3.8l67.1-193.2
		c0.6-2.1,1.3-4.4,2.1-6.9c0.8-4.4,1.3-9,1.3-13.5c-0.2-1,0.6-2.1,1.7-2.3h54c1.7,0,2.5,0.6,2.7,1.7l76.1,214.7
		c0.6,2.3,0,3.3-2.1,3.3h-43.6c-1.5,0.2-2.9-0.8-3.3-2.3L224.6,322.2z M159.2,279.9h52.9c-1.3-4.4-2.9-9.6-4.8-15
		c-1.9-5.6-3.8-11.7-5.6-17.9c-2.1-6.5-4-12.7-6-19.2c-2.1-6.5-4-12.5-5.6-18.6c-1.7-5.8-3.1-11.3-4.6-16.3H185
		c-1.9,9-4.2,17.9-7.1,26.9c-3.1,10-6.3,20.4-9.6,30.9C165.4,261.3,162.3,271.1,159.2,279.9z"/>
	<path class="st1" d="M336.2,190c-6.9,0.2-13.5-2.5-18.6-7.3c-4.8-5.2-7.3-12.1-7.1-19.2c-0.2-7.1,2.5-13.8,7.5-18.6
		c5-4.8,11.7-7.3,18.6-7.3c8.1,0,14.4,2.5,19,7.3c4.6,5,7.1,11.7,6.9,18.6c0.2,7.1-2.3,14-7.3,19.2
		C350.3,187.7,343.2,190.4,336.2,190L336.2,190z M312.8,371V210.5c0-2.1,0.8-2.9,2.7-2.9h41.3c1.9,0,2.7,1,2.7,2.9V371
		c0,2.3-0.8,3.3-2.7,3.3h-40.9C313.8,374.3,312.8,373,312.8,371z"/>
</g>
</svg>
