<?xml version="1.0" encoding="utf-8"?>
<!-- Generator: Adobe Illustrator 26.3.1, SVG Export Plug-In . SVG Version: 6.00 Build 0)  -->
<svg version="1.1" id="레이어_1" xmlns="http://www.w3.org/2000/svg" xmlns:xlink="http://www.w3.org/1999/xlink" x="0px"
	 y="0px" viewBox="0 0 384 512" style="enable-background:new 0 0 384 512;" xml:space="preserve">
<style type="text/css">
	.st0{fill:#FFA000;}
	.st1{fill:#F57C00;}
	.st2{fill:#FFCA28;}
	.st3{fill:#FFFFFF;fill-opacity:0.2;}
	.st4{opacity:0.2;fill:#A52714;enable-background:new    ;}
	.st5{fill:url(#b_00000118370324431095935850000000332384769072342405_);}
</style>
<g>
	<path class="st0" d="M6.5,412.6L69.3,10.8c0.8-4.9,4.6-8.8,9.5-9.6s9.8,1.6,12.2,6l64.9,121.1l26-49.4c2-3.8,6-6.2,10.3-6.2
		s8.3,2.4,10.3,6.2l175.3,333.7H6.5L6.5,412.6z"/>
	<path class="st1" d="M223.5,256l-67.6-127.9L6.5,412.6L223.5,256z"/>
	<path class="st2" d="M377.6,412.6L329.5,115c-0.7-4.3-3.8-7.8-7.9-9.1c-4.1-1.3-8.7-0.2-11.7,2.8L6.5,412.6l167.9,94.1
		c10.5,5.9,23.4,5.9,33.9,0L377.6,412.6L377.6,412.6z"/>
	<path class="st3" d="M329.6,114.9c-0.7-4.3-3.8-7.8-7.9-9.1c-4.1-1.3-8.7-0.2-11.7,2.8L249.7,169l-47.4-90.1c-2-3.8-6-6.2-10.3-6.2
		c-4.3,0-8.3,2.4-10.3,6.2l-25.9,49.3L91,7c-2.4-4.4-7.3-6.8-12.2-6s-8.7,4.7-9.5,9.7L6.5,412.6H6.3l0.2,0.2l1.7,0.8l301.6-302
		c3.1-3.1,7.6-4.2,11.7-2.9c4.1,1.3,7.2,4.8,7.9,9.1l47.7,295l0.5-0.3L329.6,114.9L329.6,114.9z M7.1,412L69.3,13.6
		c0.8-4.9,4.6-8.8,9.5-9.7s9.8,1.6,12.2,6L156,131l25.9-49.3c2-3.8,6-6.2,10.3-6.2s8.3,2.4,10.3,6.2l46.4,88.2L7.1,412L7.1,412z"/>
	<path class="st4" d="M208.3,503.9c-10.5,5.9-23.4,5.9-33.9,0L7,410l-0.4,2.6l167.9,94.1c10.5,5.9,23.4,5.9,33.9,0l169.3-94.1
		l-0.4-2.7L208.3,503.9L208.3,503.9z"/>
	<g>
		
			<linearGradient id="b_00000049939726637073809360000008410553981654014868_" gradientUnits="userSpaceOnUse" x1="-251.366" y1="776.5941" x2="-247.3051" y2="779.5479" gradientTransform="matrix(95 0 0 130.9998 23874 -101645.8281)">
			<stop  offset="0" style="stop-color:#FFFFFF;stop-opacity:0.1"/>
			<stop  offset="0.14" style="stop-color:#FFFFFF;stop-opacity:8.000000e-02"/>
			<stop  offset="0.61" style="stop-color:#FFFFFF;stop-opacity:2.000000e-02"/>
			<stop  offset="1" style="stop-color:#FFFFFF;stop-opacity:0"/>
		</linearGradient>
		
			<path id="b_00000109004811289435170020000013292579727695386788_" style="fill:url(#b_00000049939726637073809360000008410553981654014868_);" d="
			M329.1,115c-0.7-4.3-3.8-7.8-7.9-9.1s-8.6-0.2-11.7,2.8l-60,60.3l-47.2-90.1c-2-3.8-5.9-6.2-10.2-6.2s-8.2,2.4-10.2,6.2
			l-25.8,49.3L91.4,7.1c-2.3-4.4-7.2-6.8-12.1-6s-8.7,4.7-9.5,9.7L7.2,412.5l167.3,94.1c10.5,5.9,23.3,5.9,33.8,0l168.7-94.1
			L329.1,115L329.1,115z"/>
	</g>
</g>
</svg>
