<?xml version="1.0" encoding="utf-8"?>
<!-- Generator: Adobe Illustrator 26.2.1, SVG Export Plug-In . SVG Version: 6.00 Build 0)  -->
<svg version="1.1" id="레이어_1" xmlns="http://www.w3.org/2000/svg" xmlns:xlink="http://www.w3.org/1999/xlink" x="0px"
	 y="0px" viewBox="0 0 512 512" style="enable-background:new 0 0 512 512;" xml:space="preserve">
<style type="text/css">
	.st0{fill:#FFA000;}
	.st1{fill:#F57C00;}
	.st2{fill:#FFCA28;}
	.st3{fill:#FFFFFF;fill-opacity:0.2;}
	.st4{opacity:0.2;fill:#A52714;enable-background:new    ;}
	.st5{fill:url(#b_00000031208068506839113240000016723727535802804905_);}
</style>
<g>
	<path class="st0" d="M70.6,412.6l62.8-401.8c0.8-4.9,4.6-8.8,9.5-9.6s9.8,1.6,12.2,6l64.9,121.1L246,78.9c2-3.8,6-6.2,10.3-6.2
		c4.3,0,8.3,2.4,10.3,6.2l175.3,333.7L70.6,412.6L70.6,412.6z"/>
	<path class="st1" d="M287.6,256L220,128.1L70.6,412.6L287.6,256z"/>
	<path class="st2" d="M441.8,412.6l-48.1-297.6c-0.7-4.3-3.8-7.8-7.9-9.1c-4.1-1.3-8.7-0.2-11.7,2.8L70.6,412.6l167.9,94.1
		c10.5,5.9,23.4,5.9,33.9,0L441.8,412.6L441.8,412.6z"/>
	<path class="st3" d="M393.7,114.9c-0.7-4.3-3.8-7.8-7.9-9.1c-4.1-1.3-8.7-0.2-11.7,2.8L313.8,169l-47.4-90.1c-2-3.8-6-6.2-10.3-6.2
		c-4.3,0-8.3,2.4-10.3,6.2l-25.9,49.3L155.1,7c-2.4-4.4-7.3-6.8-12.2-6s-8.7,4.7-9.5,9.7L70.6,412.6h-0.2l0.2,0.2l1.7,0.8l301.6-302
		c3.1-3.1,7.6-4.2,11.7-2.9c4.1,1.3,7.2,4.8,7.9,9.1l47.7,295l0.5-0.3L393.7,114.9L393.7,114.9z M71.2,412l62.2-398.4
		c0.8-4.9,4.6-8.8,9.5-9.7s9.8,1.6,12.2,6L220.1,131L246,81.7c2-3.8,6-6.2,10.3-6.2c4.3,0,8.3,2.4,10.3,6.2l46.4,88.2L71.2,412
		L71.2,412z"/>
	<path class="st4" d="M272.4,503.9c-10.5,5.9-23.4,5.9-33.9,0L71.1,410l-0.4,2.6l167.9,94.1c10.5,5.9,23.4,5.9,33.9,0l169.3-94.1
		l-0.4-2.7L272.4,503.9L272.4,503.9z"/>
	<g>
		
			<linearGradient id="b_00000121979836634292878160000001511476482105683865_" gradientUnits="userSpaceOnUse" x1="1.1303" y1="510.2608" x2="5.1912" y2="507.307" gradientTransform="matrix(95 0 0 -130.9998 -49 66931.9141)">
			<stop  offset="0" style="stop-color:#FFFFFF;stop-opacity:0.1"/>
			<stop  offset="0.14" style="stop-color:#FFFFFF;stop-opacity:8.000000e-02"/>
			<stop  offset="0.61" style="stop-color:#FFFFFF;stop-opacity:2.000000e-02"/>
			<stop  offset="1" style="stop-color:#FFFFFF;stop-opacity:0"/>
		</linearGradient>
		
			<path id="b_00000109004811289435170020000013292579727695386788_" style="fill:url(#b_00000121979836634292878160000001511476482105683865_);" d="
			M393.2,115c-0.7-4.3-3.8-7.8-7.9-9.1s-8.6-0.2-11.7,2.8l-60,60.3l-47.2-90.1c-2-3.8-5.9-6.2-10.2-6.2s-8.2,2.4-10.2,6.2
			l-25.8,49.3L155.5,7.1c-2.3-4.4-7.2-6.8-12.1-6s-8.7,4.7-9.5,9.7L71.3,412.5l167.3,94.1c10.5,5.9,23.3,5.9,33.8,0l168.7-94.1
			L393.2,115L393.2,115z"/>
	</g>
</g>
</svg>
