<?xml version="1.0" encoding="utf-8"?>
<!-- Generator: Adobe Illustrator 26.3.1, SVG Export Plug-In . SVG Version: 6.00 Build 0)  -->
<svg version="1.1" id="레이어_1" xmlns="http://www.w3.org/2000/svg" xmlns:xlink="http://www.w3.org/1999/xlink" x="0px"
	 y="0px" viewBox="0 0 512 512" style="enable-background:new 0 0 512 512;" xml:space="preserve">
<style type="text/css">
	.st0{fill:#4EC3E9;}
	.st1{fill:none;}
	.st2{font-family:'AppleSDGothicNeo-SemiBold-KSCpc-EUC-H';}
	.st3{font-size:77px;}
</style>
<path class="st0" d="M402.7,153.7c-4.9-1.6-9.8-3.2-14.7-4.6c0.8-3.3,1.5-6.7,2.3-10c11.1-53.9,3.8-97.2-20.9-111.5
	c-23.8-13.7-62.6,0.5-101.8,34.7c-3.9,3.3-7.7,6.9-11.3,10.4c-2.4-2.4-5-4.7-7.5-7c-41.1-36.5-82.4-51.9-107.1-37.5
	C118,42,110.9,82.7,120.9,133.8c1,5.1,2.1,10,3.3,15.1c-5.8,1.6-11.5,3.4-16.8,5.3c-48.3,16.7-82.9,43.1-82.9,70.5
	c0,28.2,36.9,56.5,87.1,73.7c4.1,1.4,8.1,2.7,12.3,3.9c-1.4,5.4-2.5,10.8-3.6,16.3c-9.5,50.2-2.1,90,21.6,103.6
	c24.4,14.1,65.5-0.4,105.4-35.4c3.2-2.8,6.3-5.7,9.5-8.8c4,3.9,8.1,7.6,12.3,11.2c38.7,33.3,77,46.8,100.6,33.1
	c24.4-14.1,32.4-56.9,22.1-109c-0.8-4-1.7-8-2.7-12.2c2.9-0.8,5.7-1.7,8.5-2.6c52.2-17.3,90-45.2,90-73.9
	C487.5,197.2,451.9,170.7,402.7,153.7L402.7,153.7z M280.3,77c33.6-29.3,65-40.8,79.3-32.6c15.3,8.8,21.2,44.2,11.6,90.8
	c-0.6,3.1-1.3,6.1-2.1,9c-20.1-4.5-40.4-7.8-60.9-9.6c-11.8-16.8-24.6-32.9-38.5-48C273.3,83.3,276.7,80.1,280.3,77z M175.7,271.6
	c4.6,7.9,9.3,15.7,14.3,23.4c-14.1-1.5-28.1-3.8-42-6.8c4-13,9-26.5,14.7-40.2C166.9,255.9,171.2,263.8,175.7,271.6L175.7,271.6z
	 M148.3,162.8c13-2.9,26.9-5.2,41.2-7.1c-4.8,7.5-9.5,15.2-13.9,23c-4.4,7.7-8.8,15.6-12.8,23.5
	C157.1,188.7,152.3,175.5,148.3,162.8L148.3,162.8z M173.1,225.1c6-12.5,12.5-24.7,19.4-36.7c6.9-12,14.3-23.7,22.1-35.2
	c13.6-1,27.4-1.5,41.5-1.5s28,0.5,41.5,1.5c7.7,11.4,15,23.1,22,35c7,11.9,13.5,24.1,19.6,36.5c-6.1,12.5-12.6,24.8-19.5,36.9
	c-6.9,12-14.2,23.7-21.9,35.3c-13.5,1-27.5,1.4-41.7,1.4c-14.2,0-27.9-0.5-41.2-1.3c-7.9-11.5-15.3-23.2-22.2-35.3
	C185.5,249.8,179.1,237.6,173.1,225.1L173.1,225.1z M336.4,271.4c4.6-8,9-16,13.2-24.1c5.8,13.1,10.9,26.4,15.3,40.1
	c-14,3.2-28.2,5.6-42.5,7.2C327.3,287,331.9,279.2,336.4,271.4L336.4,271.4z M349.4,202.2c-4.3-8-8.6-15.9-13.1-23.7
	c-4.4-7.7-9-15.3-13.8-22.8C337,157.5,351,160,364,163C359.8,176.3,354.9,189.4,349.4,202.2z M256.2,100.5
	c9.5,10.3,18.4,21.2,26.8,32.4c-17.9-0.8-35.9-0.8-53.8,0C238,121.2,247.1,110.3,256.2,100.5z M151.3,45
	c15.2-8.9,48.9,3.8,84.5,35.3c2.3,2,4.5,4.2,6.9,6.3c-14,15.1-27,31.2-38.8,48c-20.4,1.8-40.7,5-60.8,9.4c-1.2-4.6-2.2-9.3-3.2-14
	C131.4,86.3,137,53.3,151.3,45L151.3,45z M129.1,283.4c-3.8-1.1-7.5-2.3-11.2-3.5c-19.3-6.1-41.1-15.6-57-28.2
	c-9.1-6.3-15.3-16.1-17-27c0-16.5,28.6-37.7,69.8-52.1c5.2-1.8,10.4-3.4,15.6-5c6.1,19.6,13.6,38.9,22.2,57.5
	C142.9,244,135.4,263.5,129.1,283.4z M234.6,372.1c-14.9,13.7-32.2,24.5-51,31.9c-10,4.8-21.6,5.2-31.9,1.2
	c-14.4-8.3-20.3-40.2-12.2-83.2c1-5.1,2.1-10.1,3.3-15.1c20.3,4.3,40.7,7.3,61.4,8.9c11.9,16.9,25.1,33.1,39.1,48.3
	C240.4,366.8,237.5,369.5,234.6,372.1L234.6,372.1z M256.7,350.1c-9.2-9.9-18.4-21-27.4-32.8c8.7,0.4,17.6,0.5,26.7,0.5
	c9.3,0,18.4-0.2,27.5-0.6C275.2,328.6,266.2,339.6,256.7,350.1z M374.9,377.2c-0.8,11-6.2,21.3-14.9,28.3
	c-14.4,8.3-45-2.5-78.1-30.9c-3.8-3.3-7.6-6.8-11.5-10.4c13.8-15.3,26.6-31.5,38.2-48.5c20.7-1.7,41.3-4.9,61.7-9.5
	c0.9,3.7,1.7,7.4,2.4,11C377.1,336.8,377.8,357.1,374.9,377.2L374.9,377.2z M391.4,280c-2.5,0.8-5.1,1.6-7.7,2.4
	c-6.3-19.7-14.1-39-23.1-57.7c8.7-18.4,16-37.4,22.2-56.9c4.7,1.4,9.2,2.8,13.6,4.3c42.1,14.5,71.7,36,71.7,52.5
	C468.1,242.2,436.5,265.1,391.4,280z M256,266.4c22.9,0,41.4-18.5,41.4-41.4s-18.5-41.4-41.4-41.4s-41.4,18.5-41.4,41.4
	S233.1,266.4,256,266.4L256,266.4z"/>
<rect y="430.3" class="st1" width="512" height="113.7"/>
<text transform="matrix(1 0 0 1 47.1045 491.8564)" class="st0 st2 st3">React Native</text>
</svg>
