<?xml version="1.0" encoding="utf-8"?>
<!-- Generator: Adobe Illustrator 25.4.1, SVG Export Plug-In . SVG Version: 6.00 Build 0)  -->
<svg version="1.1" id="레이어_1" xmlns="http://www.w3.org/2000/svg" xmlns:xlink="http://www.w3.org/1999/xlink" x="0px"
	 y="0px" viewBox="0 0 512 512" style="enable-background:new 0 0 512 512;" xml:space="preserve">
<style type="text/css">
	.st0{fill:none;stroke:#000000;stroke-width:6;stroke-linecap:round;stroke-linejoin:round;stroke-miterlimit:10;}
	.st1{fill:#4EC3E9;}
	.st2{fill:#848484;}
</style>
<g id="large">
</g>
<g id="medium">
</g>
<polygon class="st0" points="276.5,276.5 220.3,66.6 143.7,143.2 248.1,171.1 171.1,248.1 143.2,143.7 66.7,220.1 171.3,248.2 
	171.1,248.3 171.7,248.5 171.7,248.4 "/>
<polygon class="st0" points="199.8,353.5 199.8,353.4 122.8,430.5 122.8,430.6 276.7,276.7 276.7,276.6 "/>
<polygon class="st0" points="353.6,199.8 430.6,122.8 430.4,122.8 353.4,199.8 "/>
<polygon class="st0" points="10.2,10.2 115.1,38.3 115.1,38.3 10.2,10.2 66.4,220.1 66.4,220.1 "/>
<polygon class="st0" points="220.2,66.5 220.2,66.4 220.3,66.5 220.3,66.5 220.2,66.4 220.2,66.4 "/>
<polygon class="st0" points="430.4,122.8 430.4,122.8 220.3,66.5 220.3,66.5 "/>
<polygon class="st0" points="220.3,66.5 220.3,66.5 220.3,66.5 220.3,66.5 220.2,66.5 220.3,66.6 "/>
<polygon class="st0" points="38.6,115.2 115.2,38.5 115.1,38.3 10.2,10.2 38.4,115.3 38.4,115.3 38.4,115.1 "/>
<polygon class="st0" points="143,143.2 38.6,115.2 38.4,115.3 66.5,220.1 66.6,220.1 143.2,143.6 "/>
<polygon class="st0" points="220.2,66.4 115.1,38.3 115.1,38.3 "/>
<polygon class="st0" points="115.3,38.4 115.2,38.5 143.2,143 143.5,143.1 220.2,66.4 115.1,38.3 115.1,38.3 "/>
<polygon class="st0" points="143,143.2 143.2,143.2 143.2,143 143,143 "/>
<polygon class="st0" points="143.4,143.2 143.5,143.3 143.2,143.6 143.2,143.7 143.7,143.2 143.5,143.1 "/>
<polygon class="st0" points="143.3,143.4 143.4,143.2 143.2,143.2 "/>
<polygon class="st0" points="66.5,220.3 66.4,220.1 66.2,220 94.3,325.1 94.5,324.9 "/>
<polygon class="st0" points="66.7,220.1 66.6,220.1 66.6,220.2 66.5,220.1 66.4,220.1 66.5,220.3 66.5,220.3 "/>
<polygon class="st0" points="66.5,220.3 94.5,324.9 171.1,248.3 "/>
<rect x="66.5" y="220.3" class="st0" width="0" height="0.1"/>
<polygon class="st0" points="276.6,276.6 276.6,276.6 276.5,276.6 276.5,276.6 171.7,248.5 199.8,353.4 199.8,353.4 199.8,353.4 
	199.8,353.4 "/>
<polygon class="st0" points="276.5,276.6 276.6,276.6 276.6,276.6 276.6,276.5 276.5,276.5 "/>
<polygon class="st0" points="94.7,325.3 122.9,430.3 199.8,353.4 199.8,353.4 "/>
<polygon class="st0" points="248.4,171.6 325.1,94.9 325.1,94.8 325.2,94.8 325.4,94.7 220.3,66.5 220.3,66.5 "/>
<polygon class="st0" points="276.7,276.7 276.7,276.8 353.6,199.8 353.6,199.8 "/>
<polygon class="st0" points="353.3,199.9 353.2,199.7 248.5,171.7 276.6,276.5 276.7,276.5 353.4,199.8 353.4,199.8 "/>
<polygon class="st0" points="276.6,276.6 276.7,276.6 276.6,276.6 276.7,276.6 276.8,276.5 276.7,276.5 "/>
<polygon class="st0" points="353.2,199.7 353.4,199.8 430.2,122.9 325.2,94.8 325.1,94.9 "/>
<g>
	<path class="st1" d="M468.1,391.3c-1.9-0.6-3.9-1.3-5.8-1.8c0.3-1.3,0.6-2.7,0.9-4c4.4-21.5,1.5-38.8-8.3-44.5
		c-9.5-5.4-25,0.2-40.6,13.8c-1.6,1.3-3.1,2.7-4.5,4.1c-1-0.9-2-1.9-3-2.8c-16.4-14.6-32.9-20.7-42.7-15
		c-9.4,5.5-12.3,21.7-8.3,42.1c0.4,2,0.8,4,1.3,6c-2.3,0.6-4.6,1.4-6.7,2.1c-19.3,6.7-33.1,17.2-33.1,28.1
		c0,11.3,14.7,22.5,34.7,29.4c1.6,0.5,3.2,1.1,4.9,1.6c-0.5,2.2-1,4.3-1.4,6.5c-3.8,20-0.8,35.9,8.6,41.3c9.7,5.6,26.1-0.1,42-14.1
		c1.3-1.1,2.5-2.3,3.8-3.5c1.6,1.6,3.2,3,4.9,4.5c15.4,13.3,30.7,18.6,40.1,13.2c9.7-5.6,12.9-22.7,8.8-43.5
		c-0.3-1.6-0.7-3.2-1.1-4.9c1.2-0.3,2.3-0.7,3.4-1c20.8-6.9,35.9-18,35.9-29.5C501.9,408.6,487.7,398,468.1,391.3L468.1,391.3z
		 M419.3,360.6c13.4-11.7,25.9-16.3,31.6-13c6.1,3.5,8.4,17.6,4.6,36.2c-0.3,1.2-0.5,2.4-0.8,3.6c-8-1.8-16.1-3.1-24.3-3.8
		c-4.7-6.7-9.8-13.1-15.4-19.1C416.5,363.2,417.9,361.9,419.3,360.6z M377.6,438.2c1.8,3.1,3.7,6.3,5.7,9.3
		c-5.6-0.6-11.2-1.5-16.7-2.7c1.6-5.2,3.6-10.6,5.9-16C374.1,432,375.8,435.1,377.6,438.2L377.6,438.2z M366.7,394.9
		c5.2-1.2,10.7-2.1,16.4-2.8c-1.9,3-3.8,6.1-5.6,9.2c-1.8,3.1-3.5,6.2-5.1,9.4C370.2,405.2,368.2,400,366.7,394.9L366.7,394.9z
		 M376.5,419.7c2.4-5,5-9.8,7.7-14.6c2.7-4.8,5.7-9.4,8.8-14c5.4-0.4,10.9-0.6,16.6-0.6s11.2,0.2,16.6,0.6c3.1,4.5,6,9.2,8.8,14
		s5.4,9.6,7.8,14.6c-2.4,5-5,9.9-7.8,14.7c-2.7,4.8-5.7,9.4-8.7,14.1c-5.4,0.4-11,0.6-16.6,0.6c-5.7,0-11.1-0.2-16.4-0.5
		c-3.1-4.6-6.1-9.3-8.9-14.1C381.5,429.6,379,424.7,376.5,419.7L376.5,419.7z M441.7,438.2c1.8-3.2,3.6-6.4,5.3-9.6
		c2.3,5.2,4.3,10.5,6.1,16c-5.6,1.3-11.3,2.2-16.9,2.9C438,444.4,439.9,441.3,441.7,438.2L441.7,438.2z M446.9,410.6
		c-1.7-3.2-3.4-6.3-5.2-9.4c-1.8-3.1-3.6-6.1-5.5-9.1c5.8,0.7,11.4,1.7,16.6,2.9C451,400.3,449.1,405.5,446.9,410.6z M409.7,370
		c3.8,4.1,7.4,8.4,10.7,12.9c-7.1-0.3-14.3-0.3-21.5,0C402.4,378.3,406.1,374,409.7,370z M367.9,347.9c6.1-3.5,19.5,1.5,33.7,14.1
		c0.9,0.8,1.8,1.7,2.7,2.5c-5.6,6-10.7,12.4-15.5,19.1c-8.1,0.7-16.2,2-24.2,3.8c-0.5-1.8-0.9-3.7-1.3-5.6
		C359.9,364.4,362.2,351.2,367.9,347.9L367.9,347.9z M359,443c-1.5-0.4-3-0.9-4.5-1.4c-7.7-2.4-16.4-6.2-22.7-11.3
		c-3.6-2.5-6.1-6.4-6.8-10.8c0-6.6,11.4-15,27.8-20.8c2.1-0.7,4.1-1.4,6.2-2c2.5,7.8,5.4,15.5,8.8,22.9
		C364.5,427.3,361.5,435,359,443z M401.1,478.3c-6,5.4-12.8,9.8-20.3,12.7c-4,1.9-8.6,2.1-12.7,0.5c-5.7-3.3-8.1-16-4.9-33.2
		c0.4-2,0.8-4,1.3-6c8.1,1.7,16.2,2.9,24.5,3.5c4.8,6.7,10,13.2,15.6,19.3C403.4,476.2,402.2,477.3,401.1,478.3L401.1,478.3z
		 M409.9,469.6c-3.7-4-7.4-8.4-10.9-13.1c3.5,0.1,7,0.2,10.6,0.2c3.7,0,7.4-0.1,11-0.3C417.3,461,413.7,465.4,409.9,469.6z
		 M457,480.4c-0.3,4.4-2.5,8.5-6,11.3c-5.7,3.3-18-1-31.2-12.3c-1.5-1.3-3-2.7-4.6-4.1c5.5-6.1,10.6-12.5,15.2-19.3
		c8.3-0.7,16.5-1.9,24.6-3.8c0.4,1.5,0.7,3,1,4.4C457.9,464.2,458.2,472.4,457,480.4L457,480.4z M463.6,441.6c-1,0.3-2,0.6-3.1,0.9
		c-2.5-7.9-5.6-15.5-9.2-23c3.5-7.4,6.4-14.9,8.8-22.7c1.9,0.5,3.7,1.1,5.4,1.7c16.8,5.8,28.6,14.4,28.6,20.9
		C494.2,426.5,481.6,435.7,463.6,441.6z M409.6,436.2c9.1,0,16.5-7.4,16.5-16.5s-7.4-16.5-16.5-16.5s-16.5,7.4-16.5,16.5
		C393.1,428.8,400.5,436.2,409.6,436.2L409.6,436.2z"/>
</g>
<g>
	<path class="st2" d="M342.6,318H292c-1.8,0-3.3-1.5-3.3-3.3l0,0c0-1.8,1.5-3.3,3.3-3.3h50.6c1.8,0,3.3,1.5,3.3,3.3l0,0
		C345.9,316.6,344.4,318,342.6,318z"/>
	<path class="st2" d="M320.6,289.5v50.6c0,1.8-1.5,3.3-3.3,3.3l0,0c-1.8,0-3.3-1.5-3.3-3.3v-50.6c0-1.8,1.5-3.3,3.3-3.3l0,0
		C319.1,286.2,320.6,287.7,320.6,289.5z"/>
</g>
</svg>
